<svg xmlns="http://www.w3.org/2000/svg"><style>:root svg:not(:target){display:none}</style><svg fill="none" id="icon-address" viewBox="0 0 32 32"><path d="M21.487 9.979c-1.24-2.101-3-3.847-5.111-5.07L16 4.692l-.376.217a14.114 14.114 0 0 0-7.05 12.717c.075 2.196.915 4.044 2.429 5.345 1.159.994 2.646 1.602 4.247 1.747v2.59h1.5v-12h-1.5v7.9c-2.534-.293-5.056-2.084-5.177-5.633A12.671 12.671 0 0 1 16 6.434a12.67 12.67 0 0 1 5.927 11.141c-.096 2.84-1.73 4.553-3.677 5.275v1.588a7.321 7.321 0 0 0 2.747-1.468c1.515-1.3 2.355-3.148 2.43-5.344a14.107 14.107 0 0 0-1.94-7.647Z" fill="#000"></path></svg><svg fill="none" id="icon-close" viewBox="0 0 28 28"><rect width="35.207" height="2.994" rx="1.497" transform="matrix(.69604 .718 -.69604 .718 3.084 1)" fill="#0F805D" fill-opacity=".75"></rect><rect width="35.207" height="2.994" rx="1.497" transform="matrix(.69604 -.718 .69604 .718 .379 26.164)" fill="#0F805D" fill-opacity=".75"></rect></svg><svg fill="none" id="icon-delivery" viewBox="0 0 33 32"><path d="M25.833 9.333c0-1.466-1.2-2.666-2.666-2.666h-4v2.666h4v3.534l-4.64 5.8h-4.694V12H8.5a5.332 5.332 0 0 0-5.333 5.333v4h2.666c0 2.214 1.787 4 4 4 2.214 0 4-1.786 4-4h5.974l6.026-7.533V9.333Zm-20 9.334v-1.334c0-1.466 1.2-2.666 2.667-2.666h2.667v4H5.833Zm4 4c-.733 0-1.333-.6-1.333-1.334h2.667c0 .734-.6 1.334-1.334 1.334Z" fill="#0F805D"></path><path d="M7.167 8h6.666v2.667H7.167V8Zm18.666 9.333c-2.213 0-4 1.787-4 4 0 2.214 1.787 4 4 4 2.214 0 4-1.786 4-4 0-2.213-1.786-4-4-4Zm0 5.334c-.733 0-1.333-.6-1.333-1.334 0-.733.6-1.333 1.333-1.333.734 0 1.334.6 1.334 1.333 0 .734-.6 1.334-1.334 1.334Z" fill="#0F805D"></path></svg><svg fill="none" id="icon-ice" viewBox="0 0 33 32"><path d="M16.504 28a.924.924 0 0 1-.606-.22.705.705 0 0 1-.252-.53v-1.94l-1.108.971a.924.924 0 0 1-.607.22.924.924 0 0 1-.606-.22.706.706 0 0 1-.251-.531c0-.2.09-.39.252-.531l2.32-2.03V17.3l-5.832 2.945-.85 2.774a.773.773 0 0 1-.401.456.967.967 0 0 1-.651.074.852.852 0 0 1-.52-.35.668.668 0 0 1-.086-.57l.407-1.323-1.922.97a.967.967 0 0 1-.648.071.852.852 0 0 1-.518-.349.668.668 0 0 1-.087-.566.77.77 0 0 1 .396-.456l1.921-.969-1.516-.355a.912.912 0 0 1-.3-.13.79.79 0 0 1-.22-.22.66.66 0 0 1-.085-.57.718.718 0 0 1 .147-.262.835.835 0 0 1 .252-.193.979.979 0 0 1 .651-.074l3.17.743L14.79 16l-5.833-2.944-3.173.742a.965.965 0 0 1-.643-.082.77.77 0 0 1-.393-.452.668.668 0 0 1 .082-.564.849.849 0 0 1 .511-.351l1.515-.356-1.921-.969a.835.835 0 0 1-.254-.192.717.717 0 0 1-.15-.263.66.66 0 0 1 .085-.572.792.792 0 0 1 .222-.22.913.913 0 0 1 .301-.13.977.977 0 0 1 .653.079l1.922.968-.407-1.324a.66.66 0 0 1 .079-.576.79.79 0 0 1 .222-.223.912.912 0 0 1 .303-.131.977.977 0 0 1 .657.078.83.83 0 0 1 .251.198c.068.08.118.17.145.267l.85 2.774 5.833 2.944v-5.89l-2.32-2.03a.752.752 0 0 1-.187-.243.67.67 0 0 1 0-.575.752.752 0 0 1 .186-.243.875.875 0 0 1 .278-.163.966.966 0 0 1 .657 0 .876.876 0 0 1 .278.162l1.108.97V4.75c0-.199.09-.39.252-.53.16-.141.379-.22.606-.22.227 0 .446.079.606.22.161.14.252.331.252.53v1.94l1.11-.971c.16-.14.379-.22.607-.22.227 0 .445.08.606.22.161.142.251.333.251.532s-.09.39-.252.53l-2.322 2.03v5.89l5.832-2.944.85-2.775a.773.773 0 0 1 .401-.456.967.967 0 0 1 .651-.074c.22.052.407.178.521.35a.669.669 0 0 1 .085.57l-.405 1.322 1.921-.969a.967.967 0 0 1 .649-.071.852.852 0 0 1 .518.348.669.669 0 0 1 .086.567.77.77 0 0 1-.395.455l-1.921.97 1.514.355c.22.052.407.178.521.35a.669.669 0 0 1 .085.57.773.773 0 0 1-.4.455.967.967 0 0 1-.651.074l-3.17-.742L18.22 16l5.832 2.945 3.172-.743a.967.967 0 0 1 .65.075c.198.1.341.263.4.455a.668.668 0 0 1-.085.57.852.852 0 0 1-.521.349l-1.515.355 1.921.97a.77.77 0 0 1 .396.455.669.669 0 0 1-.087.566.852.852 0 0 1-.518.35.967.967 0 0 1-.648-.073l-1.922-.969.405 1.325a.659.659 0 0 1-.079.576.79.79 0 0 1-.221.223.912.912 0 0 1-.303.131.977.977 0 0 1-.657-.078.83.83 0 0 1-.252-.198.713.713 0 0 1-.145-.267l-.849-2.773-5.832-2.945v5.89l2.32 2.03c.162.14.252.331.253.53 0 .2-.09.39-.252.531a.924.924 0 0 1-.606.22.925.925 0 0 1-.607-.219l-1.11-.97v1.939c0 .199-.09.39-.251.53a.924.924 0 0 1-.607.22h.002Z" fill="#0F805D"></path></svg><svg fill="none" id="icon-leaf" viewBox="0 0 33 32"><path d="M12.503 21.996c11.954 0 12.917-10.17 12.994-15.003a.982.982 0 0 0-1.006-.988c-16.988.312-16.988 8.548-16.988 15.99v4" stroke="#0F805D" stroke-width="2" stroke-linecap="round" stroke-linejoin="round"></path><path d="M7.503 21.996s0-6 8-7" stroke="#0F805D" stroke-width="2" stroke-linecap="round" stroke-linejoin="round"></path></svg><svg fill="none" id="icon-mail" viewBox="0 0 32 32"><path d="M23.875 9H8.125c-.298 0-.585.123-.795.342-.211.218-.33.515-.33.825v11.666c0 .31.119.607.33.825.21.22.497.342.795.342h15.75c.298 0 .584-.123.796-.342.21-.219.329-.515.329-.825V10.167c0-.31-.119-.607-.33-.825A1.105 1.105 0 0 0 23.875 9Zm-.866 12.833H9.059l3.937-4.223-.81-.81-4.061 4.357V11.053l6.992 7.216c.21.218.496.34.793.34.297 0 .582-.123.793-.34l7.172-7.396V21.08l-4.14-4.293-.793.822 4.067 4.223ZM8.862 10.167h14.102L15.91 17.44l-7.048-7.274Z" fill="#000"></path></svg><svg fill="none" id="icon-menu" viewBox="0 0 60 60"><path d="M50.125 27.5H9.875A2.375 2.375 0 0 0 7.5 29.875v.25A2.375 2.375 0 0 0 9.875 32.5h40.25a2.375 2.375 0 0 0 2.375-2.375v-.25a2.375 2.375 0 0 0-2.375-2.375ZM50.125 40H9.875A2.375 2.375 0 0 0 7.5 42.375v.25A2.375 2.375 0 0 0 9.875 45h40.25a2.375 2.375 0 0 0 2.375-2.375v-.25A2.375 2.375 0 0 0 50.125 40ZM50.125 15H9.875A2.375 2.375 0 0 0 7.5 17.375v.25A2.375 2.375 0 0 0 9.875 20h40.25a2.375 2.375 0 0 0 2.375-2.375v-.25A2.375 2.375 0 0 0 50.125 15Z" fill="#0F805D"></path></svg><svg fill="none" id="icon-news" viewBox="0 0 76 32"><path d="M63.42 14.404a38.688 38.688 0 0 1-1.709-2.71C61 10.443 59.54 6.09 61.536 5.02c-.441 1.863 1.483 4.601 2.093 6.218.75 1.984 1.523 4.544 2.681 6.584-1.09-.962-2-2.123-2.89-3.42Zm3.31-1.679c.17 1.626.4 3.248.65 4.866-.685-1.667-1.583-3.305-2.264-4.915-1.092-2.584-1.863-5.288-2.959-7.865.021-.003.038-.012.06-.014 3.29-.438 4.287 5.775 4.513 7.928Zm.293 16.666c-.383.824-1.513.936-1.979.106-.326-.58.202-1.507.584-1.91.056-.06.106-.096.155-.133.104.052.25.023.303-.089l.006-.014c.293.04.507.482.95.703a.567.567 0 0 0 .216.06c.02.446-.06.896-.235 1.276Zm-7.377-3.439c-.528 1.533-1.195 3.277-2.333 4.444-.375.386-.714.37-1.013.178.37-2.105.858-3.839 1.825-5.812.577-1.18 1.293-2.334 1.822-3.552.137-.107.272-.21.409-.31-.093 1.788-.107 3.299-.71 5.052Zm-3.608-.571c.605-1.034 1.478-2.02 2.425-2.906-.535 1.06-1.037 2.139-1.531 3.188-.564 1.197-1.201 2.57-1.441 3.939l-.058-.098c-.77-1.335-.083-2.946.605-4.123Zm-11.79-11.593c-.685-.886-1.336-1.79-1.915-2.754-.396-.66-.536-1.42-.993-2.028-.073-.098-.197-.074-.276-.004-.046-1.252.114-2.628.293-3.821.149-.996.515-1.688.99-2.11.77 4.537 1.982 9.065 4.238 13.056-.85-.687-1.639-1.44-2.336-2.339Zm2.44-8.21c.757 3.369-.715 6.824.25 10.05-.832-1.972-1.685-3.931-2.389-5.963-.78-2.25-.797-4.733-1.694-6.92 1.4-.647 3.304.473 3.833 2.833Zm-3.712 19.62c-.021-.818.805-1.333 1.486-1.478.848-.182.9.68.95 1.408a.288.288 0 0 0 .05.144c-.615.982-2.45 1.319-2.486-.073Zm-5.614-5.428c-1.437 2.009-2.191 4.419-3.965 6.178-.786.78-1.568.949-2.206.735 1.405-4.122 4.542-7.14 8.208-9.052-.745.556-1.396 1.245-2.037 2.14Zm-7.53 3.886c.264-1.306 1.07-2.32 1.967-3.226 1.56-1.577 3.435-2.323 5.41-2.832-.835.574-1.597 1.27-2.18 1.788-2.039 1.81-3.733 4.063-4.712 6.653-.455-.587-.673-1.459-.485-2.383ZM21.042 4.24c-.395-1.105-.085-1.929.93-2.471 1.213 3.514 2.645 7.1 4.664 10.224-2.515-2.004-4.613-4.592-5.593-7.753Zm2.169-2.918a4.917 4.917 0 0 1 1.951 1.31c1.423 1.349 1.631 3.479 1.736 5.333.082 1.464.03 2.903.436 4.246a152.58 152.58 0 0 1-2.932-5.808c-.723-1.52-1.008-3.45-2.02-4.815.249-.098.517-.191.829-.266ZM9.031 30.546c-.059.01-.109.001-.163.002 1.15-3.85 2.078-7.708 3.66-11.388-.252.906-.37 1.877-.486 2.662-.303 2.056-.649 4.381-.39 6.468-.594 1.075-1.29 2.084-2.622 2.256Zm-1.51-4.335c.586-2.056 2.035-3.704 3.45-5.361-1.45 2.984-2.476 6.26-2.755 9.516-1.06-.716-.94-3.298-.694-4.155ZM6.3 14.324c-1.024-.365-1.996-.924-2.911-1.513-.38-.246-3.245-3.533-2.522-4.067 1.847 1.566 3.995 2.79 6.082 3.966 1.669.94 3.464 2.006 5.313 2.692-1.997-.276-3.987-.375-5.962-1.078Zm7.226.99c-1.895-1.32-4.168-2.215-6.188-3.293-1.941-1.036-3.79-2.255-5.703-3.337 4.69.176 9.373 2.536 11.891 6.63Zm3.789 9.223c-1.215-.053-1.67-1.281-1.068-2.236.694-1.102 1.885-.543 2.735-.046.086.94-.643 2.325-1.667 2.282ZM2.91 26.327c-.51.025-.692-.529-.745-.962-.064-.523.282-.96.677-1.236.367-.257.829-.4 1.266-.29.312.08.452.474.751.598-.199.913-1.036 1.845-1.95 1.89ZM14.578 5.403c1.162.287.956 2.018.686 2.87-.147.463-.417.964-.813 1.252-.804.155-1.622-.78-2.024-1.66-.723-1.582.572-2.85 2.151-2.462Zm16.76 1.325c-.42-1.104-.055-2.277 1.064-2.684 1.07-.393 1.782.504 1.797 1.544.007.5-.15.973-.414 1.384-.264.41-.763.536-1.14.794-.03.021-.041.054-.066.08-.551-.041-.963-.381-1.241-1.118ZM53.543 10.3c.69-.39 1.313.226 1.53.87.307.911-.19 1.38-.51 2.157-.005.013-.007.024-.01.037-1.583.058-2.836-2.037-1.01-3.064Zm21.914 8.131a33.969 33.969 0 0 1-6.534 1.076c-.137-.061-.267-.128-.399-.194.06-2.19-.64-4.425-.867-6.589-.174-1.67-.316-3.5-1.081-5.012-.99-1.956-3.003-4.708-5.423-3.439-2.898 1.521-.87 6.683.193 8.63 1.272 2.334 3.093 5.327 5.553 6.695a50.488 50.488 0 0 1-6.567-.329c-2.4-.827-3.689-3.103-4.984-5.177 1.372-.342 1.438-2.477.963-3.606-.629-1.497-2.05-2.13-3.5-1.481-1.646.732-2.117 2.787-1.157 4.273.416.643 1.103 1.135 1.854 1.223.456.055.852-.026 1.21-.205.194 1.29 1.065 2.395 1.888 3.345.44.507.937.97 1.485 1.342-3.408-.494-6.817-1.225-10.196-2.003-.014-1.554-.38-3.06-.287-4.64.096-1.622.257-3.23.214-4.859-.062-2.231-.82-4.927-3.063-5.79-4.803-1.844-4.796 4.828-3.826 7.86-.063 1.625 1.784 3.694 2.603 4.803a8.845 8.845 0 0 0 2.225 2.128c-3.068-.718-6.106-1.441-9.09-2.021a14.22 14.22 0 0 1-2.007-2.316c-.75-1.084-.986-2.242-1.358-3.424 2.558-.113 2.883-7.196-1.393-5.745-1.781.603-2.302 2.695-1.546 4.338.373.81 1.385 1.638 2.237 1.54-.01 1.156.664 2.392 1.21 3.295a9.253 9.253 0 0 0 1.733 2.1c-2.2-.4-4.533-.7-6.904-.83-.102-.066-.203-.13-.304-.197-.49-3.455.416-8.085-1.991-10.908-1.27-1.49-4.107-3.569-5.745-1.334-1.62 2.213-.103 5.001 1.153 6.996 1.381 2.194 3.181 4.124 5.375 5.381a39.473 39.473 0 0 0-6.045.303c-.753-.437-1.512-.86-2.254-1.315-1.095-.67-2.036-1.529-3.067-2.283.318-.43.54-.947.691-1.452.57-1.895.06-4.26-2.122-4.51-1.106-.127-2.353.395-2.952 1.372-.58.941-.288 2.18.168 3.1.264.532.665.995 1.118 1.323.004.052.014.1.034.147.371.885 1.379 1.187 2.192.78a2.3 2.3 0 0 0 .553-.392c1.05 1.614 2.88 2.598 4.674 3.37-2.028.329-4.002.851-5.86 1.608C12.14 10.02 5.774 7.739.48 7.722c-.265-.001-.432.216-.456.47-.514 5.7 6.881 8.782 11.931 8.316-2.659 1.472-4.99 3.543-6.786 6.37a1.993 1.993 0 0 0-.903-.516c-1.09-.281-2.364.452-2.984 1.345-.716 1.032-.596 2.477.232 3.409.774.871 2.065.528 2.855-.106.874-.703 1.372-1.795 1.177-2.936a.314.314 0 0 0-.046-.123.173.173 0 0 0 .003-.028.462.462 0 0 0 .147-.096c1.68-1.623 3.312-3.037 4.992-4.236-2.726 2.693-5.378 6.567-3.874 9.831 1.832 3.981 5.774.844 5.998-2.467.01-.123-.095-.176-.192-.166.216-1.1.261-2.256.372-3.35a31.92 31.92 0 0 1 .69-4.112c.157-.66.415-1.241.539-1.873 2.047-1.028 4.247-1.765 6.743-2.195-.74.537-1.326 1.234-1.849 2.07-.49.782-1.11 1.925-1.362 2.995a2.133 2.133 0 0 0-.265-.016c-.877.016-1.598.609-2.06 1.337-1.027 1.614-.17 3.564 1.702 3.826 1.536.217 2.527-1.2 2.69-2.625.086-.75-.197-1.517-.713-1.818a1.81 1.81 0 0 0-.427-.39c.303-.653.487-1.413.717-2.027.545-1.442 1.291-2.685 2.57-3.511.45-.062.909-.111 1.377-.154 4.837-.433 9.72.31 14.507 1.298-4.947.356-11.286 5.245-8.849 10.23 1.322 2.702 4.62 1 5.95-.577 2.445-2.901 3.098-6.89 6.448-8.886l1.787.398c1.641.365 3.313.753 5 1.137-1.116 1.056-2.19 2.444-2.64 3.946a2.369 2.369 0 0 0-.94-.19c-1.56-.002-3.014 1.368-2.915 3.017.109 1.815 1.78 2.39 3.24 1.743.617-.273 1.219-.774 1.426-1.457a1.383 1.383 0 0 0-.027-.92c.214-.449.238-.93-.008-1.473a1.319 1.319 0 0 0-.207-.311c.336-.51.6-1.06.89-1.624a14.134 14.134 0 0 1 1.75-2.6c3.529.795 7.133 1.55 10.74 1.977l-.074.126c-2.108 1.258-4.142 3.062-4.998 5.424-.704 1.945-.377 5.09 1.94 5.736 1.866.516 3.197-2.416 3.768-3.719 1.085-2.48 1.516-4.783.957-7.407a43.69 43.69 0 0 0 5.707.157c-.636.842-1.054 1.799-1.336 2.875-.156.592-.281 1.312-.246 1.993a2.62 2.62 0 0 0-.542.355c-1.146.977-1.782 2.89-.92 4.26.994 1.58 3.345 1.426 4.182-.195.503-.973.43-2.137-.08-3.029-.038-.669-.551-1.267-1.174-1.505-.067-.024-.133-.04-.2-.057.03-.51.038-1.024.108-1.5.165-1.12.562-2.22 1.067-3.23 2.739-.178 5.445-.676 8.082-1.625.533-.192.322-1.033-.235-.881Z" fill="#8E9892" fill-opacity=".7"></path></svg><svg fill="none" id="icon-phone" viewBox="0 0 32 32"><path d="m12.563 6.505-.86.259a4.2 4.2 0 0 0-2.946 3.424c-.356 2.482.44 5.384 2.362 8.711 1.916 3.32 4.026 5.458 6.348 6.394a4.2 4.2 0 0 0 4.458-.846l.65-.617a2.4 2.4 0 0 0 .297-3.147l-1.628-2.256a1.8 1.8 0 0 0-1.985-.668l-2.462.753-.063.012c-.272.04-.898-.547-1.678-1.899-.816-1.413-.984-2.24-.76-2.454l1.252-1.167a2.997 2.997 0 0 0 .69-3.42l-.794-1.765a2.4 2.4 0 0 0-2.88-1.314h-.002ZM14.35 8.31l.793 1.766a1.796 1.796 0 0 1-.413 2.052l-1.255 1.168c-.803.761-.537 2.06.543 3.93 1.015 1.759 1.942 2.627 2.938 2.476l.149-.031 2.505-.764a.6.6 0 0 1 .663.221l1.627 2.256a1.2 1.2 0 0 1-.148 1.575l-.651.617a3 3 0 0 1-3.184.603c-2.038-.82-3.964-2.773-5.758-5.88-1.799-3.114-2.527-5.762-2.214-7.94a3 3 0 0 1 2.104-2.447l.86-.26a1.2 1.2 0 0 1 1.44.658h.002Z" fill="#000"></path></svg><svg fill="none" id="icon-separator" viewBox="0 0 228 32"><path d="M99.68 16.12a.229.229 0 0 0-.048-.128l.12-.002-.071.13Zm-9.587 13.345c.614-4.816 3.936-10.858 9.416-13.115.03-.011.048-.028.07-.043-1.346 2.526-2.055 5.223-3.574 7.717-1.323 2.174-3.56 3.897-5.912 5.44ZM72.05 27.749c-.474.788-3.178 4.216-2.94 2.2.195-1.663.75-3.291 1.372-4.886 1.284-3.291 3.687-6.05 6.877-8.375-.814.961-1.169 2.22-1.545 3.277-.94 2.646-2.267 5.291-3.764 7.784ZM64.92 5.333c-1.972-2.264 1.584-1.042 3.236-.632 2.733.676 5.334 1.82 7.704 3.053 3.627 1.888 7.131 3.926 9.416 6.804-7.886-1.24-15.684-3.856-20.357-9.225Zm23.772.673c-.895-.594-1.689-1.262-2.473-1.94.176.155-2.43-3.027-2.303-2.992 5.138 1.398 9.691 3.535 13.68 6.391 2.932 2.1 4.782 4.965 7.58 7.142-3.983-1.378-7.312-3.33-10.88-5.29-1.922-1.056-3.814-2.124-5.604-3.311Zm-42.615 22.81c-1.553 1.45-1.945 1.105-1.939-.666.007-1.874 1.111-3.66 2.309-5.235 2-2.628 5.174-4.655 8.018-6.717h.087c-2.61 4.368-4.415 8.832-8.475 12.619ZM30.563 19.85c-1.713 2.373-3.213 4.915-6.663 5.883.728-4.4 4.917-7.81 10.123-9.4-1.525.86-2.621 2.35-3.46 3.517ZM2.319 15.38c5.75-1.552 11.235-1.392 17.008-.296-1.084.01-2.165.019-3.248.027-.399.004-.554.287-.473.513-4.566.537-9.341 1.74-13.287-.244ZM19.931 4.745c7.569.07 13.153 5.146 18.072 9.307-3.301-1.207-6.948-1.81-10.07-3.43-3.049-1.582-5.38-3.893-8.002-5.877Zm19.44-1.544c9.053 1.384 16.408 5.08 20.999 11.23-8.108-1.555-17.282-5.159-20.998-11.23Zm72.263 12.086c-1.619-.043-3.239-.07-4.859-.106.065-.105.057-.237-.078-.357-3.509-3.105-6.252-6.56-10.349-9.253-3.893-2.56-8.605-4.233-13.382-5.554-.33-.091-.74.203-.601.464 1.933 3.653 5.398 6.123 9.436 8.451 3.538 2.04 7.628 5.068 12.062 6.186-5.747-.116-11.497-.206-17.248-.257-1.28-2.79-4.76-4.757-7.745-6.45-4.68-2.653-9.783-4.603-15.542-5.356-.356-.046-.668.16-.582.448 1.067 3.517 5.3 6.097 8.964 8.05 2.16 1.152 5.193 2.533 8.264 3.266-6.153-.032-12.307-.04-18.462-.025C58.964 7.528 47.352 3.43 38.603 2.257c-.35-.048-.815.183-.65.5C40.92 8.53 49.458 13.248 57.55 14.81c-5.863.022-11.725.055-17.588.1a.348.348 0 0 0-.129-.109c-.235-.11-.481-.204-.721-.306C33.828 9.566 27.544 3.332 18.435 3.836c-.518.028-.85.508-.439.817 2.765 2.074 5.24 4.5 8.348 6.283 3.34 1.917 7.283 3.103 11.28 3.994-5.107.04-10.212.084-15.318.129-6.766-2.771-14.984-2.71-21.928-.362-.436.148-.504.696-.155.927 2.553 1.683 5.731 1.875 8.976 1.816 3.899-.07 8.965-.228 12.66-1.24.147-.04.225-.142.226-.242 3.41.03 6.821.057 10.232.086-5.41 1.54-9.19 5.71-9.447 10.206-.014.241.311.41.6.352 2.906-.585 4.739-2.102 6.268-4.021.901-1.134 1.645-2.338 2.545-3.473 1.066-1.346 2.363-2.046 4.021-2.884a.344.344 0 0 0 .158-.145c5.536.045 11.071.084 16.61.113-6.021 3.539-11.653 8.537-9.957 14.735.069.252.502.464.827.361 3.017-.948 4.803-3.503 6.362-5.565 2.294-3.036 3.765-6.224 5.333-9.506.002-.005 0-.01.002-.016 6.93.03 13.86.044 20.788.02-5.818 3.188-9.195 10.064-8.707 15.324a.54.54 0 0 0 .587.453c2.871-.25 4.677-3.719 5.591-5.43 1.733-3.243 2.67-7.542 5.346-10.365a1645.3 1645.3 0 0 0 19.346-.198c-6.446 1.785-10.117 9.935-9.948 14.633.017.475.708.655 1.15.367 6.243-4.086 8.823-9.021 10.909-15.036 3.645-.065 7.29-.141 10.933-.238.372-.01.372-.434 0-.444ZM128.247 15.99c.04 0 .081 0 .12.002a.23.23 0 0 0-.047.128l-.073-.13Zm3.748 8.034c-1.519-2.495-2.229-5.19-3.574-7.717.023.015.04.032.07.043 5.481 2.257 8.801 8.3 9.417 13.115-2.353-1.544-4.59-3.267-5.913-5.441Zm20.19-4.06c-.375-1.057-.73-2.315-1.544-3.276 3.19 2.325 5.593 5.084 6.877 8.375.621 1.595 1.177 3.223 1.374 4.886.236 2.016-2.468-1.412-2.941-2.2-1.497-2.493-2.825-5.138-3.766-7.784Zm-9.462-5.406c2.287-2.878 5.79-4.916 9.419-6.804 2.369-1.232 4.969-2.377 7.702-3.053 1.652-.41 5.207-1.632 3.237.632-4.672 5.369-12.47 7.986-20.358 9.225Zm-9.018-5.241c-3.569 1.96-6.897 3.912-10.881 5.29 2.798-2.177 4.649-5.042 7.58-7.142 3.989-2.856 8.542-4.993 13.681-6.391.126-.035-2.48 3.147-2.304 2.993-.784.677-1.577 1.345-2.473 1.939-1.791 1.187-3.681 2.255-5.603 3.31Zm39.744 6.882.086-.001c2.844 2.062 6.017 4.089 8.018 6.717 1.199 1.576 2.302 3.361 2.31 5.235.005 1.771-.387 2.116-1.939.667-4.06-3.787-5.864-8.25-8.475-12.618Zm20.527.134c5.207 1.59 9.395 5 10.124 9.4-3.448-.968-4.95-3.51-6.663-5.884-.84-1.165-1.933-2.655-3.461-3.516Zm18.419-.708c.079-.226-.076-.509-.473-.513l-3.249-.027c5.773-1.096 11.259-1.256 17.008.296-3.946 1.983-8.72.781-13.286.244Zm-12.328-5.003c-3.121 1.62-6.768 2.223-10.07 3.43 4.919-4.16 10.504-9.237 18.072-9.307-2.622 1.984-4.954 4.295-8.002 5.877Zm-32.436 3.808c4.591-6.15 11.945-9.845 20.997-11.229-3.717 6.071-12.889 9.675-20.997 11.23Zm-51.265 1.301c3.644.097 7.288.173 10.933.238 2.086 6.014 4.665 10.95 10.91 15.036.441.289 1.132.108 1.149-.367.17-4.698-3.502-12.848-9.947-14.633 6.448.107 12.896.167 19.345.198 2.677 2.823 3.612 7.122 5.345 10.365.916 1.711 2.721 5.18 5.592 5.43.334.028.566-.23.586-.453.488-5.26-2.888-12.136-8.706-15.324 6.928.024 13.859.01 20.788-.02l.001.016c1.57 3.282 3.04 6.47 5.333 9.506 1.56 2.062 3.346 4.617 6.363 5.565.325.103.758-.109.827-.361 1.696-6.198-3.936-11.196-9.955-14.735 5.536-.029 11.073-.068 16.608-.113a.335.335 0 0 0 .158.145c1.658.838 2.955 1.538 4.022 2.884.899 1.135 1.644 2.34 2.546 3.473 1.527 1.919 3.36 3.436 6.266 4.02.288.059.615-.11.6-.35-.258-4.497-4.039-8.668-9.447-10.207 3.411-.03 6.823-.056 10.233-.086.001.1.079.201.226.242 3.694 1.012 8.76 1.17 12.659 1.24 3.244.06 6.424-.133 8.976-1.816.348-.23.282-.78-.155-.927-6.944-2.349-15.161-2.409-21.927.362-5.107-.045-10.212-.088-15.319-.129 3.996-.891 7.939-2.077 11.28-3.994 3.108-1.782 5.583-4.21 8.348-6.283.41-.309.08-.789-.439-.817-9.109-.504-15.394 5.73-20.677 10.659-.241.102-.485.195-.721.306a.349.349 0 0 0-.13.11c-5.861-.046-11.724-.079-17.587-.101 8.092-1.563 16.631-6.28 19.598-12.052.164-.318-.301-.549-.651-.501-8.75 1.173-20.361 5.27-22.91 12.537a2427.69 2427.69 0 0 0-18.462.025c3.073-.733 6.104-2.114 8.264-3.266 3.665-1.953 7.898-4.533 8.965-8.05.087-.288-.226-.494-.582-.448-5.759.753-10.864 2.703-15.543 5.357-2.984 1.692-6.464 3.66-7.745 6.45-5.749.05-11.5.14-17.247.256 4.433-1.118 8.524-4.145 12.063-6.186 4.037-2.328 7.501-4.798 9.436-8.45.139-.262-.273-.556-.602-.465-4.777 1.32-9.488 2.994-13.382 5.554-4.097 2.693-6.841 6.148-10.349 9.253-.135.12-.143.252-.079.357-1.619.037-3.239.063-4.858.107-.373.009-.373.434 0 .443Z" fill="#8E9892" fill-opacity=".7"></path></svg><svg fill="none" id="icon-telegram" viewBox="0 0 20 20"><path d="M18.156 2.812a1.242 1.242 0 0 0-1.257-.195L2.565 8.403a1.234 1.234 0 0 0 .062 2.307l3.093 1.074 1.676 5.54c.003.012.014.02.019.03a.391.391 0 0 0 .255.234c.008.003.013.01.021.012H7.7c.062.014.126.01.186-.009.006-.001.013-.001.02-.004a.394.394 0 0 0 .153-.097c.005-.006.013-.007.017-.012l2.41-2.66 3.518 2.724c.214.167.477.257.748.257a1.24 1.24 0 0 0 1.215-.985L18.576 4a1.225 1.225 0 0 0-.42-1.189v.001ZM8.271 12.836l-.566 2.75-1.18-3.903 5.852-3.048-3.998 3.999a.4.4 0 0 0-.108.202Zm6.91 3.818a.432.432 0 0 1-.277.319.42.42 0 0 1-.411-.063l-3.81-2.95a.4.4 0 0 0-.541.047l-1.678 1.849.565-2.742 5.751-5.752a.4.4 0 0 0-.467-.637l-8.29 4.318-3.134-1.09A.42.42 0 0 1 2.6 9.56a.426.426 0 0 1 .267-.414L17.2 3.359a.429.429 0 0 1 .446.069.418.418 0 0 1 .146.414l-2.61 12.812Z" fill="#0F805D"></path></svg><svg fill="none" id="icon-tick" viewBox="0 0 14 11"><path d="M5 11 0 5.804 1.59 4.19 5 7.7 12.41 0 14 1.655 5 11Z" fill="#0F805D"></path></svg><svg fill="none" id="icon-vkontakte" viewBox="0 0 20 16"><g clip-path="url(#icon-vkontakte_0)"><path d="M1.4 5.176c0-.503.343-.775 1.03-.814l2.644.015c.178 0 .296.074.355.222.272.74.577 1.378.914 1.915.338.538.778 1.157 1.323 1.857a.242.242 0 0 0 .23.133.224.224 0 0 0 .196-.104l.053-.162.018-2.56c0-.177-.05-.295-.151-.355-.1-.059-.287-.103-.56-.133-.212-.03-.319-.138-.319-.325 0-.04.006-.07.018-.089.248-.64.958-.961 2.13-.961l.994-.015c.45 0 .822.093 1.118.28.296.188.444.484.444.888v3.358c.083.05.16.074.23.074.178 0 .332-.088.462-.266 1.302-1.519 2.006-2.534 2.112-3.047 0-.01.012-.035.036-.074.083-.148.219-.276.408-.385.19-.108.355-.182.497-.222.047-.02.1-.03.16-.03h2.751l.178.016c.236 0 .42.093.55.28a.51.51 0 0 1 .098.193c.017.069.03.138.035.207l.009.118v.104c-.083.404-.293.836-.63 1.294a14.23 14.23 0 0 1-1.287 1.487c-.52.533-.846.883-.976 1.05-.107.119-.16.227-.16.326 0 .079.047.167.142.266l2.591 2.722c.142.158.213.33.213.518 0 .226-.106.414-.32.562a1.483 1.483 0 0 1-.762.251l-.302.015h-2.698a.656.656 0 0 0-.071.007.658.658 0 0 1-.071.008c-.26 0-.503-.094-.728-.281-.083-.08-.639-.661-1.668-1.746a.893.893 0 0 0-.249-.192c-.047.158-.11.385-.186.68-.077.296-.133.508-.169.636l-.053.252c-.118.345-.367.552-.746.621l-.248.015h-1.74c-.982 0-1.961-.375-2.937-1.124-.976-.75-1.855-1.719-2.636-2.907-.781-1.188-1.509-2.572-2.183-4.15a1.012 1.012 0 0 1-.09-.428Zm10.668 3.83a1.35 1.35 0 0 1-.675-.17c-.201-.113-.302-.268-.302-.465V4.968c0-.197-.059-.337-.177-.421-.118-.084-.325-.126-.621-.126l-1.012.03c-.509 0-.894.074-1.154.222.52.207.781.542.781 1.005v2.604a.852.852 0 0 1-.355.614c-.213.163-.45.244-.71.244-.355 0-.627-.143-.816-.429-.923-1.164-1.61-2.268-2.06-3.314l-.16-.384-2.36-.015c-.154 0-.24.007-.257.022-.018.015-.027.057-.027.126 0 .089.012.182.036.281l.372.828c.994 2.14 2.074 3.827 3.24 5.06 1.165 1.232 2.31 1.849 3.434 1.849h1.775c.071 0 .125-.018.16-.052a.425.425 0 0 0 .089-.2l.035-.148.338-1.301c.094-.178.177-.296.248-.355a.698.698 0 0 1 .462-.163c.284 0 .573.143.87.429l1.508 1.597c.095.129.195.193.302.193h2.929c.355 0 .532-.074.532-.222a.252.252 0 0 0-.053-.148l-2.574-2.678c-.201-.207-.302-.429-.302-.665 0-.237.095-.464.284-.68.154-.198.453-.526.897-.985.444-.458.831-.887 1.162-1.286.332-.4.55-.762.657-1.088l.053-.192a.194.194 0 0 1-.017-.096.301.301 0 0 0-.018-.111h-2.787a.973.973 0 0 0-.426.266l-.106.281c-.296.68-1.071 1.73-2.326 3.151a1.358 1.358 0 0 1-.87.296Z" fill="#0F805D"></path></g><defs><clipPath id="icon-vkontakte_0"><path fill="#fff" transform="translate(.4 .8)" d="M0 0h19.2v15.086H0z"></path></clipPath></defs></svg><svg fill="none" id="icon-youtube" viewBox="0 0 20 20"><path d="m12.565 9.752-3.6-2.4A.3.3 0 0 0 8.5 7.6v4.8a.293.293 0 0 0 .157.262.339.339 0 0 0 .143.038.27.27 0 0 0 .165-.052l3.6-2.4a.293.293 0 0 0 0-.496ZM9.1 11.837V8.163L11.86 10 9.1 11.838Zm8.587-6.127a1.53 1.53 0 0 0-.907-1.02c-2.535-.975-6.608-.96-6.78-.96-.173 0-4.245-.015-6.78.96a1.53 1.53 0 0 0-.908 1.02C2.125 6.437 1.9 7.772 1.9 10c0 2.227.225 3.563.412 4.29a1.53 1.53 0 0 0 .908 1.02c2.535.975 6.607.96 6.78.96h.052c.518 0 4.32-.03 6.728-.96a1.53 1.53 0 0 0 .907-1.02c.188-.727.413-2.063.413-4.29 0-2.228-.225-3.563-.413-4.29Zm-.585 8.43a.9.9 0 0 1-.54.607c-2.43.938-6.517.923-6.562.923-.045 0-4.133.015-6.563-.922a.9.9 0 0 1-.54-.608c-.18-.697-.397-1.98-.397-4.14 0-2.16.217-3.443.397-4.14a.9.9 0 0 1 .54-.608C5.867 4.315 9.955 4.33 10 4.33c.045 0 4.132-.015 6.562.922a.9.9 0 0 1 .54.608c.18.697.398 1.98.398 4.14 0 2.16-.218 3.443-.398 4.14Z" fill="#0F805D"></path></svg><svg fill="none" id="logo-berry" viewBox="0 0 52 52"><path d="M14.408 18.444s-1.863 1.119-2.278 2.958c-.416 1.84 0 3.854 0 3.854s-2.922 1.206-2.922 4.996c0 3.791 2.464 4.863 2.464 4.863s.03 4.474 2.787 6.887c2.759 2.413 5.653 2.425 5.653 2.425s1.505 3.183 5.933 3.183 5.933-3.183 5.933-3.183 2.998-.438 5.653-2.425c2.654-1.986 2.581-6.887 2.581-6.887s2.67-1.07 2.67-4.863c0-3.791-2.922-4.995-2.922-4.995s.416-2.015 0-3.855c-.417-1.84-2.279-2.958-2.279-2.958" fill="#B22EC8"></path><path d="M40.046 24.142c0-7.741-6.276-9.921-14.017-9.921-7.74 0-14.017 2.18-14.017 9.921S18.288 38.16 26.029 38.16c7.74 0 14.017-6.276 14.017-14.017Z" fill="#B22EC8"></path><path d="M26.475 47.6s3.79-2.65 3.542-8.747c1.63-1.695 2.136-3.974.655-6.743 2.501-3.565 2.241-7.421-.75-10.345 1.232-1.78.587-3.32-.807-4.479 0 0 4.012 1.968 7.085-.845 0 0 6.459 4.644 3.76 8.816 0 0 7.131 4.82.253 9.858 0 0 1.004 7.681-8.06 9.28 0 0-2.386 2.702-5.678 3.205Z" fill="#6A107A"></path><path d="M40.286 8.134c-3.084 14.391-12.549 9.485-13.835 6.954-1.286-2.531-.044-12.609 13.835-6.955Z" fill="#0F805D"></path><path d="M11.804 8.134c3.084 14.391 12.549 9.485 13.835 6.954 1.285-2.531.043-12.609-13.835-6.955Z" fill="#0F805D"></path><path d="M40.285 8.134c-3.083 14.391-12.548 9.485-13.834 6.954-1.286-2.531-.044-12.609 13.834-6.955v0Z" stroke="#000" stroke-width="2" stroke-miterlimit="10" stroke-linecap="round" stroke-linejoin="round"></path><path d="M32.913 11.046c-2.26.868-5.156 2.264-6.438 4.084M11.803 8.134c3.084 14.391 12.549 9.485 13.835 6.954 1.285-2.531.043-12.609-13.835-6.955v0Z" stroke="#000" stroke-width="2" stroke-miterlimit="10" stroke-linecap="round" stroke-linejoin="round"></path><path d="M19.176 11.046c2.262.868 5.156 2.264 6.439 4.084m-11.207 3.314s-1.863 1.119-2.278 2.958c-.416 1.84 0 3.854 0 3.854s-2.922 1.206-2.922 4.996c0 3.791 2.464 4.863 2.464 4.863s.03 4.474 2.787 6.887c2.759 2.413 5.653 2.425 5.653 2.425s1.505 3.183 5.933 3.183 5.933-3.183 5.933-3.183 2.998-.438 5.653-2.425c2.654-1.986 2.581-6.887 2.581-6.887s2.67-1.07 2.67-4.863c0-3.791-2.922-4.995-2.922-4.995s.416-2.015 0-3.855c-.417-1.84-2.279-2.958-2.279-2.958" stroke="#000" stroke-width="2" stroke-miterlimit="10" stroke-linecap="round" stroke-linejoin="round"></path><path d="M30.509 21.288s-1.89 1.998-4.221 1.998m-4.382-1.998s1.89 1.998 4.221 1.998m10.029 5.26c0 2.088-1.793 3.78-4.003 3.78m-4.158-3.78c0 2.088 1.793 3.78 4.004 3.78m-7.528-3.78c0 2.088-1.793 3.78-4.004 3.78m-4.157-3.78c0 2.088 1.792 3.78 4.004 3.78m9.95 6.574c-.753 1.004-2.282 1.69-4.045 1.69m-4.306-1.813c.718 1.07 2.299 1.813 4.132 1.813m-4.169-1.554c0 .896-.555 1.704-1.443 2.27m9.875-2.27c0 .977.66 1.849 1.69 2.418" stroke="#000" stroke-width="2" stroke-miterlimit="10" stroke-linecap="round" stroke-linejoin="round"></path><path d="M16.908 30.819c0 1.708-1.2 3.152-2.847 3.62m4.003-13.177c0 2.235-1.793 4.048-4.004 4.048m19.431-4.048c0 2.235 1.793 4.048 4.004 4.048M35.57 30.82c0 1.632 1.095 3.022 2.629 3.553" stroke="#000" stroke-width="2" stroke-miterlimit="10" stroke-linecap="round" stroke-linejoin="round"></path></svg><svg fill="none" id="logo-htmlacademy" viewBox="0 0 20 24"><path d="M10.111 0h-.074L0 .985V18.37L10.037 24 20 18.37V.984L10.111 0Zm8.476 8.516-8.55-4.786v-.07h-.074l-.075-.07v.07L1.413 8.516V2.182l8.55-.845 8.624.845v6.334Zm-8.624-3.73 8.55 4.715-3.346 1.83-5.279-2.956v.986l4.387 2.463-.67.352-3.717-2.111v.985l2.826 1.619-.595.351-2.23-1.266v.985l1.412.774-1.338.774-8.476-4.715 8.476-4.786Zm-8.55 5.842 8.475 4.786v.703L4.015 12.81v.986l5.948 3.378v.774L4.015 14.64v.986l5.948 3.378 6.022-3.449v-3.66l2.528-1.407v7.038l-8.55 4.856-8.55-4.786v-6.967Z" fill="#000"></path></svg><svg fill="none" id="logo-text" viewBox="0 0 65 36"><path d="M9.48 31.2c-.614 0-.974-.307-1.08-.92a22.118 22.118 0 0 1-.2-2.88A431.6 431.6 0 0 1 8 21c-.027-2.24-.04-3.867-.04-4.88a3.443 3.443 0 0 0-1.4 1.12c-.32.453-.627 1.04-.92 1.76-.48 1.307-.72 2.6-.72 3.88v1c0 .16-.014.653-.04 1.48a26.92 26.92 0 0 1-.24 2.72c-.16 1.333-.827 2.333-2 3-.187.107-.427.16-.72.16-.347 0-.64-.08-.88-.24-.214-.187-.28-.44-.2-.76.053-.187.133-.32.24-.4.106-.08.253-.16.44-.24.213-.08.373-.16.48-.24.4-.373.6-.88.6-1.52l.04-3.36c.053-1.307.12-2.307.2-3 .08-.72.28-1.547.6-2.48.106-.347.36-.893.76-1.64.4-.773.693-1.267.88-1.48-1.414-.693-2.4-1.56-2.96-2.6-.534-1.04-.8-2.56-.8-4.56 0-1.573.28-3.12.84-4.64.56-1.493 1.48-2.44 2.76-2.84l1.76-.6c.24-.107.506-.16.8-.16.56 0 1.2.24 1.92.72.453.267.68.707.68 1.32-.16 2.24-.24 3.933-.24 5.08V16.48c0 2.827.026 4.96.08 6.4.026 1.093.066 2.067.12 2.92.053.853.093 1.56.12 2.12l.12 2.2v.24c0 .347-.054.573-.16.68-.107.107-.32.16-.64.16ZM7.8 2.16a22.2 22.2 0 0 1-.92.32c-.454.16-.854.347-1.2.56-.4.187-.774.587-1.12 1.2a8.952 8.952 0 0 0-.76 1.88c-.187.667-.267 1.173-.24 1.52l.08 1.76c0 .827.013 1.48.04 1.96.026.747.24 1.373.64 1.88.426.48 1.013.813 1.76 1 .293.08.626.2 1 .36.4.133.693.24.88.32L7.8 2.16Zm7.637 29.16c-.027-.107-.08-.293-.16-.56a2.057 2.057 0 0 1-.04-.68c.053-3.093.133-5.4.24-6.92.026-.56.04-1.387.04-2.48 0-1.973-.094-4.36-.28-7.16-.16-3.413-.24-6-.24-7.76 0-.4.16-.76.48-1.08.32-.32.706-.48 1.16-.48 1.52 0 2.84.12 3.96.36.533.107.88.293 1.04.56.16.24.213.653.16 1.24-.374.24-.76.36-1.16.36a3.37 3.37 0 0 1-.6-.08c-.24-.053-.88-.107-1.92-.16h-.08c-.374 0-.56.2-.56.6-.134 3.867-.2 6.067-.2 6.6.053 2.773.106 4.867.16 6.28 0 .187.013.413.04.68.026.267.026.493 0 .68-.08 1.227-.12 2.52-.12 3.88 0 2.213.04 3.76.12 4.64-.027.587-.12.987-.28 1.2-.16.24-.454.36-.88.36-.107 0-.4-.027-.88-.08Zm13.773.44c-.694 0-1.334-.227-1.92-.68-.587-.427-1.067-1.013-1.44-1.76-.774-1.627-1.254-3.4-1.44-5.32-.24-1.813-.36-3.56-.36-5.24 0-.32.013-.587.04-.8v-.72c0-.133-.014-.2-.04-.2v-.72l.04-2.8c.026-.853.133-2.213.32-4.08.133-1.28.44-2.52.92-3.72.187-.533.427-.933.72-1.2.293-.293.627-.44 1-.44 1.066 0 2.026.2 2.88.6a5.868 5.868 0 0 1 2.16 1.6c.533.667.986 1.493 1.36 2.48.373.96.64 1.987.8 3.08.16 1.12.24 2.307.24 3.56v.32c0 .827.013 1.573.04 2.24l.04 2.28c0 7.68-1.787 11.52-5.36 11.52Zm-.16-1.68c.48 0 .92-.187 1.32-.56.4-.4.706-.933.92-1.6.507-1.36.813-2.827.92-4.4.133-1.36.2-2.533.2-3.52 0-1.2-.093-2.773-.28-4.72-.16-2.053-.24-3.587-.24-4.6v-.72c-.053-1.013-.4-1.893-1.04-2.64-.614-.747-1.373-1.12-2.28-1.12-.907 0-1.507.52-1.8 1.56-.267.827-.4 1.893-.4 3.2 0 .507.013.933.04 1.28v1.08l-.08 1.84c-.053.56-.08 1.173-.08 1.84 0 1.44.04 2.867.12 4.28.107 2 .373 3.947.8 5.84.426 1.973 1.053 2.96 1.88 2.96Zm23.843 5.84c-.213.053-.373.08-.48.08-.32 0-.547-.2-.68-.6-.107-.32-.16-.72-.16-1.2l.04-2.76c0-.16-.013-.307-.04-.44l-.08-.4h-4.6c.267 0-.373.133-1.92.4-1.52.24-2.707.4-3.56.48l-1.8.16-2 .2v.88c.027.347.027.76 0 1.24v.2c0 .427-.107.747-.32.96-.213.213-.413.32-.6.32-.107 0-.267-.053-.48-.16-.48-.347-.747-.827-.8-1.44l-.12-2.92c-.053-1.04.373-1.56 1.28-1.56.507-.027.907-.16 1.2-.4.293-.24.64-.613 1.04-1.12.4-.533.707-1.12.92-1.76.24-.667.467-1.467.68-2.4.24-1.013.413-2 .52-2.96.107-.96.24-2.333.4-4.12.24-2.8.36-5.613.36-8.44l-.04-2.24c0-.507.147-.92.44-1.24.293-.347.693-.52 1.2-.52.16 0 .28.013.36.04 1.227.213 2.227.347 3 .4h.2c.347 0 .547-.067.6-.2.24-.32.533-.48.88-.48.24 0 .453.053.64.16.427.16.707.56.84 1.2l-.2 6.84c0 3.707.013 6.48.04 8.32 0 .96.027 2.427.08 4.4l.04 2.2c0 .213.013.413.04.6l.08.56c.533.053.933.08 1.2.08.213 0 .373-.013.48-.04a1.942 1.942 0 0 1 1.56.44c.48.347.72.8.72 1.36 0 .72-.053 1.8-.16 3.24 0 .373-.027.907-.08 1.6-.053.56-.293.907-.72 1.04Zm-11.52-6.36c1.493-.133 2.667-.253 3.52-.36a17.48 17.48 0 0 0 2.6-.6c.267-3.227.4-6.68.4-10.36 0-3.413-.133-7.16-.4-11.24-.693-.027-1.987-.093-3.88-.2l-.04 1.88c-.213 4.107-.36 7.173-.44 9.2a33.269 33.269 0 0 1-1.56 8.96c-.053.16-.173.56-.36 1.2a4.45 4.45 0 0 1-.76 1.6l.92-.08Zm22.795 1.8c-.614 0-1.067-.093-1.36-.28-.294-.187-.44-.533-.44-1.04 0-.8-.134-2.16-.4-4.08l-.16-.84-3.96-.6c-.16.613-.387 1.853-.68 3.72-.16 1.307-.414 2.173-.76 2.6-.187.24-.454.36-.8.36a1.5 1.5 0 0 1-.88-.28c-.267-.213-.4-.467-.4-.76l.08-.2.04-.16c1.76-6.853 3.093-13.613 4-20.28 0-.107.013-.28.04-.52.026-.267.053-.64.08-1.12.08-.987.16-1.773.24-2.36.106-.587.266-1.027.48-1.32h1.36c.373 0 .693.093.96.28.266.16.4.4.4.72 0 2.027.28 5.04.84 9.04.533 4.107.8 6.987.8 8.64 0 .16.066.573.2 1.24.133.613.2 1.013.2 1.2 0 .187.133.987.4 2.4.24 1.28.36 2.107.36 2.48v.04c0 .587-.214.96-.64 1.12Zm-2.64-7.68c-.08-.4-.12-.893-.12-1.48 0-2.4-.214-5.467-.64-9.2l-.4-4.16c-1.147 6.267-1.934 11-2.36 14.2.4.267 1.573.48 3.52.64Z" fill="#0F805D"></path></svg></svg>