<svg width="133" height="60" fill="none" xmlns="http://www.w3.org/2000/svg"><path d="M16.07 21.282s-2.078 1.29-2.54 3.413c-.464 2.122 0 4.447 0 4.447s-3.26 1.39-3.26 5.765c0 4.374 2.75 5.61 2.75 5.61s.032 5.163 3.108 7.947 6.304 2.798 6.304 2.798 1.68 3.673 6.618 3.673c4.939 0 6.618-3.673 6.618-3.673s3.343-.505 6.305-2.798c2.96-2.291 2.88-7.947 2.88-7.947s2.978-1.235 2.978-5.61-3.26-5.764-3.26-5.764.464-2.326 0-4.448c-.465-2.122-2.542-3.413-2.542-3.413" fill="#B22EC8"/><path d="M44.666 27.857c0-8.933-7-11.449-15.634-11.449s-15.634 2.517-15.634 11.449c0 8.931 7 16.173 15.634 16.173s15.634-7.242 15.634-16.173Z" fill="#B22EC8"/><path d="M29.53 54.923s4.227-3.058 3.95-10.092c1.819-1.957 2.383-4.586.731-7.781 2.79-4.113 2.5-8.563-.838-11.937 1.376-2.053.656-3.831-.899-5.167 0 0 4.475 2.27 7.903-.976 0 0 7.204 5.358 4.194 10.172 0 0 7.954 5.561.282 11.375 0 0 1.12 8.863-8.99 10.709 0 0-2.662 3.117-6.334 3.697Z" fill="#6A107A"/><path d="M44.934 9.385c-3.44 16.606-13.997 10.944-15.431 8.024-1.434-2.92-.049-14.548 15.43-8.025v.001Z" fill="#0F805D"/><path d="M13.166 9.385c3.44 16.606 13.997 10.944 15.431 8.024 1.434-2.92.049-14.548-15.431-8.025v.001Z" fill="#0F805D"/><path d="M44.934 9.385c-3.44 16.606-13.997 10.944-15.431 8.024-1.434-2.92-.049-14.548 15.43-8.025v.001Z" stroke="#000" stroke-width="2" stroke-miterlimit="10" stroke-linecap="round" stroke-linejoin="round"/><path d="M36.71 12.745c-2.52 1.002-5.75 2.613-7.18 4.713M13.165 9.384c3.44 16.606 13.997 10.944 15.431 8.024 1.434-2.92.049-14.548-15.431-8.025v.001Z" stroke="#000" stroke-width="2" stroke-miterlimit="10" stroke-linecap="round" stroke-linejoin="round"/><path d="M21.39 12.745c2.521 1.002 5.75 2.613 7.18 4.713m-12.5 3.824s-2.078 1.29-2.54 3.413c-.464 2.122 0 4.447 0 4.447s-3.26 1.39-3.26 5.765c0 4.374 2.75 5.61 2.75 5.61s.032 5.163 3.108 7.947 6.304 2.798 6.304 2.798 1.68 3.673 6.618 3.673c4.939 0 6.618-3.673 6.618-3.673s3.343-.505 6.305-2.798c2.96-2.291 2.88-7.947 2.88-7.947s2.978-1.235 2.978-5.61-3.26-5.764-3.26-5.764.464-2.326 0-4.448c-.465-2.122-2.542-3.413-2.542-3.413" stroke="#000" stroke-width="2" stroke-miterlimit="10" stroke-linecap="round" stroke-linejoin="round"/><path d="M34.03 24.563s-2.108 2.305-4.709 2.305m-4.887-2.305s2.107 2.305 4.708 2.305m11.186 6.069c0 2.41-2 4.363-4.465 4.363m-4.637-4.363c0 2.41 2 4.363 4.465 4.363m-8.396-4.363c0 2.41-2 4.363-4.466 4.363m-4.637-4.363c0 2.41 2 4.363 4.466 4.363m11.099 7.585c-.841 1.157-2.546 1.95-4.512 1.95m-4.804-2.092c.802 1.234 2.565 2.091 4.61 2.091m-4.65-1.792c0 1.033-.62 1.965-1.61 2.62m11.014-2.62c0 1.127.736 2.133 1.886 2.79" stroke="#000" stroke-width="2" stroke-miterlimit="10" stroke-linecap="round" stroke-linejoin="round"/><path d="M18.859 35.56c0 1.972-1.338 3.637-3.176 4.178m4.465-15.205c0 2.58-1.999 4.671-4.466 4.671m21.674-4.67c0 2.579 2 4.67 4.466 4.67m-2.148 6.356c0 1.883 1.222 3.487 2.933 4.1" stroke="#000" stroke-width="2" stroke-miterlimit="10" stroke-linecap="round" stroke-linejoin="round"/><path d="M76.48 45.2c-.614 0-.974-.307-1.08-.92a22.123 22.123 0 0 1-.2-2.88c-.08-2.053-.147-4.187-.2-6.4-.027-2.24-.04-3.867-.04-4.88a3.444 3.444 0 0 0-1.4 1.12c-.32.453-.627 1.04-.92 1.76-.48 1.307-.72 2.6-.72 3.88v1c0 .16-.014.653-.04 1.48a26.88 26.88 0 0 1-.24 2.72c-.16 1.333-.827 2.333-2 3-.187.107-.427.16-.72.16-.347 0-.64-.08-.88-.24-.214-.187-.28-.44-.2-.76.053-.187.133-.32.24-.4.106-.08.253-.16.44-.24.213-.08.373-.16.48-.24.4-.373.6-.88.6-1.52l.04-3.36c.053-1.307.12-2.307.2-3 .08-.72.28-1.547.6-2.48.106-.347.36-.893.76-1.64.4-.773.693-1.267.88-1.48-1.414-.693-2.4-1.56-2.96-2.6-.534-1.04-.8-2.56-.8-4.56 0-1.573.28-3.12.84-4.64.56-1.493 1.48-2.44 2.76-2.84l1.76-.6c.24-.107.506-.16.8-.16.56 0 1.2.24 1.92.72.453.267.68.707.68 1.32-.16 2.24-.24 3.933-.24 5.08V30.48c0 2.827.026 4.96.08 6.4.026 1.093.066 2.067.12 2.92.053.853.093 1.56.12 2.12l.12 2.2v.24c0 .347-.054.573-.16.68-.107.107-.32.16-.64.16ZM74.8 16.16c-.134.053-.44.16-.92.32-.454.16-.854.347-1.2.56-.4.187-.774.587-1.12 1.2a8.954 8.954 0 0 0-.76 1.88c-.187.667-.267 1.173-.24 1.52l.08 1.76c0 .827.013 1.48.04 1.96.026.747.24 1.373.64 1.88.426.48 1.013.813 1.76 1 .293.08.626.2 1 .36.4.133.693.24.88.32l-.16-12.76Zm7.637 29.16c-.027-.107-.08-.293-.16-.56a2.057 2.057 0 0 1-.04-.68c.053-3.093.133-5.4.24-6.92.026-.56.04-1.387.04-2.48 0-1.973-.094-4.36-.28-7.16-.16-3.413-.24-6-.24-7.76 0-.4.16-.76.48-1.08.32-.32.706-.48 1.16-.48 1.52 0 2.84.12 3.96.36.533.107.88.293 1.04.56.16.24.213.653.16 1.24-.374.24-.76.36-1.16.36-.134 0-.334-.027-.6-.08-.24-.053-.88-.107-1.92-.16h-.08c-.374 0-.56.2-.56.6-.134 3.867-.2 6.067-.2 6.6.053 2.773.106 4.867.16 6.28 0 .187.013.413.04.68.026.267.026.493 0 .68-.08 1.227-.12 2.52-.12 3.88 0 2.213.04 3.76.12 4.64-.027.587-.12.987-.28 1.2-.16.24-.454.36-.88.36-.107 0-.4-.027-.88-.08Zm13.773.44c-.694 0-1.334-.227-1.92-.68-.587-.427-1.067-1.013-1.44-1.76-.773-1.627-1.253-3.4-1.44-5.32-.24-1.813-.36-3.56-.36-5.24 0-.32.013-.587.04-.8v-.72c0-.133-.014-.2-.04-.2v-.72l.04-2.8c.026-.853.133-2.213.32-4.08.133-1.28.44-2.52.92-3.72.186-.533.427-.933.72-1.2.293-.293.627-.44 1-.44 1.067 0 2.026.2 2.88.6a5.868 5.868 0 0 1 2.16 1.6c.533.667.987 1.493 1.36 2.48.373.96.64 1.987.8 3.08.16 1.12.24 2.307.24 3.56v.32c0 .827.013 1.573.04 2.24l.04 2.28c0 7.68-1.787 11.52-5.36 11.52Zm-.16-1.68c.48 0 .92-.187 1.32-.56.4-.4.706-.933.92-1.6.506-1.36.813-2.827.92-4.4.133-1.36.2-2.533.2-3.52 0-1.2-.093-2.773-.28-4.72-.16-2.053-.24-3.587-.24-4.6v-.72c-.053-1.013-.4-1.893-1.04-2.64-.613-.747-1.373-1.12-2.28-1.12-.907 0-1.507.52-1.8 1.56-.267.827-.4 1.893-.4 3.2 0 .507.013.933.04 1.28v1.08l-.08 1.84c-.053.56-.08 1.173-.08 1.84 0 1.44.04 2.867.12 4.28.106 2 .373 3.947.8 5.84.427 1.973 1.053 2.96 1.88 2.96Zm23.843 5.84c-.213.053-.373.08-.48.08-.32 0-.547-.2-.68-.6-.107-.32-.16-.72-.16-1.2l.04-2.76c0-.16-.013-.307-.04-.44l-.08-.4h-4.6c.267 0-.373.133-1.92.4-1.52.24-2.707.4-3.56.48l-1.8.16-2 .2v.88c.027.347.027.76 0 1.24v.2c0 .427-.107.747-.32.96-.213.213-.413.32-.6.32-.107 0-.267-.053-.48-.16-.48-.347-.747-.827-.8-1.44l-.12-2.92c-.053-1.04.373-1.56 1.28-1.56.507-.027.907-.16 1.2-.4.293-.24.64-.613 1.04-1.12.4-.533.707-1.12.92-1.76.24-.667.467-1.467.68-2.4.24-1.013.413-2 .52-2.96.107-.96.24-2.333.4-4.12.24-2.8.36-5.613.36-8.44l-.04-2.24c0-.507.147-.92.44-1.24.293-.347.693-.52 1.2-.52.16 0 .28.013.36.04 1.227.213 2.227.347 3 .4h.2c.347 0 .547-.067.6-.2.24-.32.533-.48.88-.48.24 0 .453.053.64.16.427.16.707.56.84 1.2l-.2 6.84c0 3.707.013 6.48.04 8.32 0 .96.027 2.427.08 4.4l.04 2.2c0 .213.013.413.04.6l.08.56c.533.053.933.08 1.2.08.213 0 .373-.013.48-.04a1.941 1.941 0 0 1 1.56.44c.48.347.72.8.72 1.36 0 .72-.053 1.8-.16 3.24 0 .373-.027.907-.08 1.6-.053.56-.293.907-.72 1.04Zm-11.52-6.36c1.493-.133 2.667-.253 3.52-.36a17.47 17.47 0 0 0 2.6-.6c.267-3.227.4-6.68.4-10.36 0-3.413-.133-7.16-.4-11.24-.693-.027-1.987-.093-3.88-.2l-.04 1.88a820.22 820.22 0 0 0-.44 9.2 33.292 33.292 0 0 1-1.56 8.96c-.053.16-.173.56-.36 1.2a4.444 4.444 0 0 1-.76 1.6l.92-.08Zm22.795 1.8c-.614 0-1.067-.093-1.36-.28-.294-.187-.44-.533-.44-1.04 0-.8-.134-2.16-.4-4.08l-.16-.84-3.96-.6c-.16.613-.387 1.853-.68 3.72-.16 1.307-.414 2.173-.76 2.6-.187.24-.454.36-.8.36a1.5 1.5 0 0 1-.88-.28c-.267-.213-.4-.467-.4-.76l.08-.2.04-.16c1.76-6.853 3.093-13.613 4-20.28 0-.107.013-.28.04-.52.026-.267.053-.64.08-1.12.08-.987.16-1.773.24-2.36.106-.587.266-1.027.48-1.32h1.36c.373 0 .693.093.96.28.266.16.4.4.4.72 0 2.027.28 5.04.84 9.04.533 4.107.8 6.987.8 8.64 0 .16.066.573.2 1.24.133.613.2 1.013.2 1.2 0 .187.133.987.4 2.4.24 1.28.36 2.107.36 2.48v.04c0 .587-.214.96-.64 1.12Zm-2.64-7.68c-.08-.4-.12-.893-.12-1.48 0-2.4-.214-5.467-.64-9.2l-.4-4.16c-1.147 6.267-1.934 11-2.36 14.2.4.267 1.573.48 3.52.64Z" fill="#0F805D"/></svg>